<?xml version="1.0" encoding="iso-8859-1"?>
<!-- Generator: Adobe Illustrator 19.1.0, SVG Export Plug-In . SVG Version: 6.00 Build 0)  -->
<svg version="1.1" id="Capa_1" xmlns="http://www.w3.org/2000/svg" xmlns:xlink="http://www.w3.org/1999/xlink" x="0px" y="0px" viewBox="0 0 180 180">
<g id="XMLID_100_">
	<path id="XMLID_1570_" style="fill:#020400;" d="M31.31,0c1.002,1.175,0.765,2.553,0.996,3.732c0.344,1.757,0.958,3.141,2.4,4.361
		c2.559,2.165,2.824,5.282,0.644,7.8c-2.021,2.335-1.146,4.85-0.942,7.345c0.06,0.741,0.833,1.055,1.483,1.306
		c4.301,1.663,4.915,5.326,4.204,8.886c-0.201,1.004-0.478,2.059-1.001,2.919c-1.439,2.365-1.216,4.886-1.234,7.492
		c-0.021,3.027,0.793,5.067,3.894,5.993c1.527,0.456,2.103,1.748,2.159,3.44c0.125,3.792-0.92,7.166-3.231,10.115
		c-1.133,1.447-1.523,2.965-1.508,4.776c0.064,7.837,0.216,15.67,0.538,23.501c0.028,0.681-0.064,1.414,0.495,1.942
		c0.673,0.636,2.219,0.399,2.666-0.582c0.998-2.19,1.841-4.451,2.703-6.7c0.189-0.494-0.06-1.015-0.245-1.501
		c-3.669-9.655-1.358-18.481,3.926-26.778c5.906-9.273,14.066-15.955,24.162-20.284c1.321-0.567,2.289-1.194,3.114-2.684
		c0.903-1.63,2.331-3.634,4.864-3.59c0.402,0.007,0.86-0.094,1.234-0.69c-1.084-1.576-1.468-3.32,0.006-5.021
		c-0.362-1.8,0.317-3.535,0.331-5.309c0.007-0.951-0.805-1.479-1.268-2.189c-1.312-2.013-1.168-4.024,0.545-5.923
		c0.558,1.805,0.207,3.829,1.942,5.116c1.661,1.232,3.387,0.775,5.435,0.396c-0.531,1.608-1.661,1.945-2.751,2.327
		c-1.658,0.581-1.544,0.557-1.181,2.329c0.375,1.833,0.06,3.748,1.022,5.547c0.49,0.915-0.55,1.88-1.033,2.595
		c0.188,0.751,0.685,0.75,1.08,0.796c2.924,0.342,4.692,2.098,5.741,4.697c0.422,1.046,1.395,1.221,2.241,1.565
		c7.23,2.944,13.411,7.433,18.678,13.108c5.221,5.626,9.288,11.988,10.723,19.706c0.864,4.649,0.745,9.268-1.042,13.719
		c-0.482,1.201-0.561,2.271-0.014,3.463c0.717,1.564,1.316,3.183,1.951,4.783c0.395,0.995,1.06,1.539,2.178,1.414
		c1.146-0.128,1.289-0.981,1.353-1.873c0.118-1.631,0.271-3.261,0.31-4.894c0.161-6.801-0.106-13.612,0.41-20.403
		c0.098-1.286-0.545-2.12-1.231-2.997c-2.325-2.971-3.446-6.291-3.189-10.101c0.096-1.422,0.517-2.481,1.783-3.185
		c0.827-0.46,1.563-1.113,2.427-1.468c1.538-0.633,1.978-1.75,1.869-3.285c-0.067-0.943-0.062-1.898,0.006-2.841
		c0.166-2.295-0.256-4.39-1.495-6.395c-1.145-1.853-1.667-3.956-1.538-6.18c0.166-2.849,1.333-5.029,4.231-5.802
		c1.555-0.415,2.118-1.257,2.014-2.773c-0.059-0.857-0.019-1.723,0.021-2.583c0.055-1.163-0.266-2.108-1.009-3.076
		c-2.477-3.224-2.012-6.215,1.313-8.631c0.917-0.666,1.439-1.435,1.641-2.49c0.304-1.589,0.6-3.181,0.892-4.738
		c0.931-0.13,0.874,0.513,0.966,0.973c0.202,1.013,0.372,2.032,0.54,3.051c0.23,1.394,0.757,2.521,1.937,3.483
		c3.106,2.533,3.341,5.489,0.691,8.494c-0.905,1.027-1.179,2.03-0.968,3.288c0.1,0.594,0.259,1.202,0.219,1.791
		c-0.128,1.885,0.684,2.906,2.447,3.681c2.72,1.195,3.971,3.822,3.621,6.799c-0.182,1.542-0.421,3.105-1.179,4.474
		c-1.046,1.888-1.329,3.88-1.194,5.984c0.038,0.601,0.008,1.206,0.014,1.809c0.041,4.271-0.222,4.137,3.455,5.593
		c1.695,0.671,2.295,1.971,2.383,3.863c0.181,3.927-1.028,7.291-3.418,10.292c-0.9,1.129-1.344,2.295-1.331,3.771
		c0.074,8.095,0.658,16.178,0.534,24.276c-0.015,0.988,0.065,1.912,1.239,2.266c0.521,0.157,0.905,0.535,1.062,1.053
		c0.462,1.522,1.4,2.532,2.958,2.954c0.898,0.243,1.156,0.983,1.211,1.79c0.065,0.944,0.073,1.893,0.073,2.84
		c0.004,16.711,0.003,33.423,0.004,50.134c0,0.775,0.029,1.55,0.02,2.325c-0.013,1.097,0.496,1.78,1.552,2.08
		c3.271,0.929,4.374,3.232,4.309,6.463c-0.108,5.368,0.35,4.936-4.859,4.937c-46.086,0.005-92.171,0.005-138.257,0.001
		c-4.904,0-4.534,0.318-4.549-4.69c-0.002-0.517,0.007-1.034,0.016-1.55c0.043-2.557,1.351-4.168,3.713-5.021
		c2.49-0.899,2.495-0.913,2.495-3.589c0.003-17.142,0.002-34.284,0.003-51.426c0-0.861,0.016-1.723,0.023-2.584
		c0.007-0.848,0.299-1.494,1.167-1.801c1.31-0.463,2.144-1.387,2.545-2.719c0.073-0.241,0.182-0.57,0.371-0.662
		c1.984-0.966,1.627-2.781,1.694-4.468c0.291-7.4,0.472-14.802,0.528-22.208c0.014-1.803-0.335-3.313-1.514-4.756
		c-2.424-2.967-2.998-6.491-2.662-10.228c0.084-0.936,0.444-1.64,1.22-2.149c0.36-0.236,0.68-0.563,1.07-0.719
		c2.896-1.16,3.73-3.256,3.508-6.312c-0.207-2.843-0.118-5.596-1.759-8.165c-1.24-1.942-1.219-4.285-0.933-6.538
		c0.302-2.381,1.762-3.823,3.97-4.634c2.128-0.782,2.108-0.816,2.169-3.088c0.058-2.146,0.044-4.106-1.533-6.013
		c-1.887-2.283-1.449-5.511,0.869-7.141c1.997-1.406,2.651-3.206,3.016-5.389C30.627,1.945,30.497,0.936,31.31,0z M82.4,157.042
		c6.889,0,13.778,0.017,20.668-0.009c2.404-0.009,2.713-0.248,2.723-2.374c0.036-8.353,0.005-16.706,0.016-25.059
		c0.002-1.233-0.467-2.056-1.564-2.721c-3.272-1.98-3.271-2.379-0.368-4.919c2.307-2.019,2.375-3.73,0.167-5.826
		c-1.584-1.504-3.498-2.492-5.499-3.319c-4.237-1.753-8.647-2.895-13.161-3.634c-1.259-0.206-2.493-0.604-3.829-0.351
		c-3.807,0.723-7.61,1.47-11.307,2.64c-2.878,0.911-5.723,1.962-8.114,3.879c-3.605,2.891-3.39,4.906-0.234,7.131
		c2.179,1.536,2.093,2.894-0.257,4.001c-1.899,0.894-2.348,2.163-2.33,4.081c0.072,7.836,0.019,15.673,0.036,23.509
		c0.006,2.795,0.164,2.959,2.901,2.967C68.966,157.057,75.683,157.043,82.4,157.042z M48.286,143.49c0-0.006,0-0.013,0-0.019
		c1.716,0,3.433,0.007,5.149-0.003c0.741-0.005,1.474-0.221,1.51-1.064c0.091-2.122,0.573-4.316-0.421-6.328
		c-0.553-1.12-0.615-2.088-0.026-3.16c0.671-1.222,0.762-2.531-0.045-3.67c-3.555-5.016-8.182-5.55-12.179-0.423
		c-0.944,1.21-1.241,2.634-0.38,4.094c0.448,0.76,0.887,1.659,0.339,2.423c-1.286,1.793-0.876,3.792-0.888,5.728
		c-0.014,2.214,0.176,2.366,2.308,2.415C45.196,143.519,46.741,143.49,48.286,143.49z M119.922,143.472v0.008
		c1.717,0,3.433,0.004,5.149-0.002c0.822-0.003,1.693-0.152,1.686-1.154c-0.017-2.189,0.685-4.476-0.626-6.528
		c-0.652-1.021-0.469-1.942,0.096-2.89c0.794-1.332,0.695-2.694-0.197-3.871c-2.495-3.292-6.112-5.541-10.286-2.068
		c-0.395,0.329-0.785,0.67-1.135,1.045c-1.345,1.441-1.9,3.044-0.931,4.927c0.448,0.872,0.735,1.768,0.176,2.689
		c-1.211,1.993-0.629,4.18-0.698,6.293c-0.035,1.054,0.58,1.552,1.617,1.551C116.489,143.471,118.206,143.472,119.922,143.472z
		 M139.604,143.474c0,0,0,0.003,0,0.005c1.717,0,3.433,0.004,5.15-0.002c0.824-0.003,1.656-0.161,1.703-1.156
		c0.097-2.042,0.542-4.162-0.364-6.09c-0.568-1.209-0.676-2.22-0.059-3.398c0.925-1.764,0.458-3.392-0.875-4.702
		c-4.186-4.11-6.902-3.783-10.813-0.037c-1.374,1.316-1.962,3.03-0.85,4.911c0.455,0.769,0.795,1.626,0.229,2.422
		c-1.445,2.031-0.748,4.311-0.866,6.494c-0.057,1.065,0.556,1.554,1.596,1.553C136.171,143.472,137.888,143.474,139.604,143.474z
		 M28.491,143.484v-0.007c1.717,0,3.433,0.004,5.15-0.002c0.723-0.002,1.541-0.127,1.591-0.959c0.122-2.037,0.65-4.213-0.309-6.076
		c-0.713-1.386-0.969-2.477-0.137-3.795c0.668-1.058,0.448-2.129-0.061-3.188c-1.976-4.109-6.682-5.302-10.327-2.607
		c-0.344,0.254-0.677,0.53-0.983,0.828c-1.547,1.506-2.289,3.202-1.22,5.316c0.353,0.698,0.74,1.478,0.272,2.2
		c-1.281,1.976-0.81,4.159-0.813,6.268c-0.003,1.711,0.279,1.943,1.947,2.006C25.227,143.533,26.86,143.484,28.491,143.484z
		 M94.901,93.632c-0.014-0.236-0.016-0.923-0.101-1.6c-0.121-0.958-0.706-1.576-1.645-1.721c-0.944-0.145-1.686,0.311-2.1,1.148
		c-0.755,1.527-0.666,3.156-0.387,4.772c0.099,0.574,0.621,0.751,1.154,0.853C94.11,97.522,94.886,96.769,94.901,93.632z
		 M68.948,93.525c-0.021-0.229,0.017-1.024-0.189-1.75c-0.307-1.083-1.075-1.757-2.274-1.689c-1.25,0.071-1.791,0.885-1.883,2.035
		c-0.061,0.766-0.075,1.541-0.042,2.308c0.081,1.86,0.872,2.452,3.095,2.403c1.69-0.038,1.157-1.335,1.289-2.254
		C68.968,94.41,68.948,94.236,68.948,93.525z M99.251,94.082c-0.004,2.742,0.549,3.154,3.156,2.424
		c0.643-0.18,1.137-0.477,1.161-1.169c0.04-1.192,0.067-2.392-0.026-3.579c-0.075-0.947-0.694-1.549-1.653-1.694
		c-1.059-0.159-1.814,0.288-2.287,1.247C99.166,92.198,99.283,93.148,99.251,94.082z M73.272,93.983
		c0.045,0.645,0.021,1.34,0.155,2.003c0.223,1.105,1.169,1.108,2.025,1.136c0.851,0.029,1.897,0.129,2.107-0.961
		c0.29-1.508,0.35-3.064-0.334-4.526c-0.416-0.889-1.172-1.217-2.105-1.122c-0.975,0.099-1.542,0.697-1.698,1.643
		C73.325,92.743,73.321,93.346,73.272,93.983z M60.194,93.297c-0.038-0.846,0.064-1.709-0.307-2.515
		c-0.533-1.159-1.7-1.808-2.661-1.432c-1.122,0.439-1.482,1.396-1.391,2.482c0.107,1.278-0.649,2.822,0.88,3.726
		C58.785,96.782,60.186,95.848,60.194,93.297z M112.375,92.8c0-0.426,0.038-0.855-0.007-1.276c-0.153-1.448-0.86-2.298-1.899-2.33
		c-0.973-0.03-2.049,0.856-2.303,2.056c-0.157,0.739-0.143,1.523-0.137,2.287c0.018,2.339,0.762,2.807,2.98,2.147
		C112.633,95.2,112.359,93.96,112.375,92.8z M82.009,94.217c0.029,0.001,0.057,0.003,0.086,0.004c0,0.601-0.024,1.204,0.005,1.804
		c0.061,1.28,0.93,1.472,1.978,1.468c1.024-0.005,1.943-0.137,2.04-1.414c0.097-1.286,0.169-2.583-0.102-3.855
		c-0.224-1.05-0.899-1.658-2.01-1.615c-0.99,0.038-1.593,0.632-1.792,1.562C82.071,92.837,82.072,93.534,82.009,94.217z
		 M51.461,92.12c-0.031-0.502-0.005-1.11-0.116-1.692c-0.244-1.282-1.096-1.987-2.29-1.986c-1.226,0.001-1.851,0.649-1.977,2.163
		c-0.064,0.763-0.07,1.541,0,2.303c0.114,1.227,2.791,2.395,3.837,1.705c0.307-0.202,0.439-0.514,0.465-0.864
		C51.418,93.239,51.432,92.727,51.461,92.12z M121.128,92.172c0-0.859,0.019-1.287-0.004-1.712c-0.056-1.038-0.47-1.81-1.593-2.001
		c-1.146-0.194-2.215,0.433-2.554,1.626c-0.183,0.642-0.187,1.347-0.198,2.025c-0.047,2.768,0.281,2.944,2.905,2.391
		C121.459,94.128,121.075,92.872,121.128,92.172z"/>
</g>
<g>
</g>
<g>
</g>
<g>
</g>
<g>
</g>
<g>
</g>
<g>
</g>
<g>
</g>
<g>
</g>
<g>
</g>
<g>
</g>
<g>
</g>
<g>
</g>
<g>
</g>
<g>
</g>
<g>
</g>
</svg>
