<?xml version="1.0" encoding="utf-8"?>
<!-- Generator: Adobe Illustrator 16.0.0, SVG Export Plug-In . SVG Version: 6.00 Build 0)  -->
<!DOCTYPE svg PUBLIC "-//W3C//DTD SVG 1.1//EN" "http://www.w3.org/Graphics/SVG/1.1/DTD/svg11.dtd" [
	<!ENTITY ns_extend "http://ns.adobe.com/Extensibility/1.0/">
	<!ENTITY ns_ai "http://ns.adobe.com/AdobeIllustrator/10.0/">
	<!ENTITY ns_graphs "http://ns.adobe.com/Graphs/1.0/">
	<!ENTITY ns_vars "http://ns.adobe.com/Variables/1.0/">
	<!ENTITY ns_imrep "http://ns.adobe.com/ImageReplacement/1.0/">
	<!ENTITY ns_sfw "http://ns.adobe.com/SaveForWeb/1.0/">
	<!ENTITY ns_custom "http://ns.adobe.com/GenericCustomNamespace/1.0/">
	<!ENTITY ns_adobe_xpath "http://ns.adobe.com/XPath/1.0/">
]>
<svg version="1.1" id="Layer_1" xmlns:x="&ns_extend;" xmlns:i="&ns_ai;" xmlns:graph="&ns_graphs;"
	 xmlns="http://www.w3.org/2000/svg" xmlns:xlink="http://www.w3.org/1999/xlink" x="0px" y="0px" width="208.73px"
	 height="99.207px" viewBox="0 0 208.73 99.207" enable-background="new 0 0 208.73 99.207" xml:space="preserve">
<metadata>
	<sfw  xmlns="&ns_sfw;">
		<slices></slices>
		<sliceSourceBounds  width="198.72" height="86.88" y="-295.251" x="302.448" bottomLeftOrigin="true"></sliceSourceBounds>
	</sfw>
</metadata>
<g>
	
		<image overflow="visible" opacity="0.2" width="828" height="362" xlink:href="E4485B2B.png"  transform="matrix(0.24 0 0 0.24 10.7817 10.4663)">
	</image>
	<g>
		<g>
			<g>
				<path fill="#4A4B4A" d="M192.814,85.242c-5.499,0-7.135-9.104-10.093-33.194c-1.146-9.333-3.004-24.469-5.131-28.255
					c-2.127,3.786-3.985,18.922-5.131,28.255c-2.958,24.091-4.594,33.194-10.093,33.194s-7.135-9.104-10.093-33.197
					c-1.146-9.331-3.003-24.463-5.129-28.251c-2.126,3.788-3.983,18.921-5.129,28.253c-2.957,24.092-4.594,33.195-10.092,33.195
					s-7.134-9.104-10.09-33.197c-1.145-9.33-3.001-24.459-5.126-28.25c-2.126,3.79-3.982,18.92-5.128,28.25
					c-2.957,24.094-4.594,33.197-10.092,33.197c-5.497,0-7.133-9.104-10.09-33.194c-1.146-9.331-3.002-24.464-5.128-28.254
					c-2.126,3.79-3.982,18.923-5.128,28.254c-2.957,24.091-4.593,33.194-10.09,33.194c-5.498,0-7.134-9.104-10.09-33.197
					c-1.145-9.33-3.001-24.459-5.126-28.25c-2.126,3.791-3.982,18.921-5.128,28.252c-2.957,24.092-4.593,33.195-10.091,33.195
					c-5.497,0-7.133-9.104-10.089-33.194c-1.219-9.932-3.244-26.436-5.541-28.84c-1.184-0.197-2.086-1.227-2.086-2.466
					c0-1.381,1.119-2.5,2.5-2.5c5.498,0,7.134,9.104,10.09,33.197c1.145,9.33,3.001,24.459,5.126,28.25
					c2.126-3.791,3.982-18.921,5.128-28.252c2.957-24.092,4.593-33.195,10.091-33.195c5.497,0,7.133,9.104,10.089,33.194
					c1.145,9.331,3.002,24.462,5.127,28.253c2.125-3.791,3.981-18.92,5.127-28.25c2.957-24.093,4.593-33.197,10.091-33.197
					s7.134,9.104,10.091,33.197c1.146,9.33,3.002,24.461,5.127,28.251c2.126-3.79,3.983-18.923,5.129-28.254
					c2.957-24.091,4.593-33.194,10.091-33.194c5.497,0,7.133,9.104,10.089,33.194c1.145,9.331,3.002,24.464,5.127,28.254
					c2.126-3.79,3.983-18.922,5.129-28.253c2.957-24.092,4.594-33.195,10.092-33.195s7.135,9.104,10.092,33.194
					c1.146,9.333,3.003,24.468,5.13,28.255c2.126-3.788,3.984-18.921,5.13-28.252c2.958-24.094,4.595-33.197,10.094-33.197
					s7.136,9.104,10.094,33.197c1.22,9.931,3.245,26.434,5.543,28.837c1.185,0.196,2.087,1.226,2.087,2.466
					C195.314,84.123,194.195,85.242,192.814,85.242z"/>
			</g>
			<g>
				<circle fill="#34C2D7" cx="22.993" cy="22.676" r="8.211"/>
			</g>
			<g>
				<circle fill="#34C2D7" cx="193.18" cy="80.947" r="8.211"/>
			</g>
		</g>
	</g>
</g>
</svg>
